# Blender v2.79 (sub 0) OBJ File: ''
# www.blender.org
mtllib FENCE.mtl
o Cylinder01
v 2.220595 0.041534 0.000175
v 1.436895 0.041534 -1.891925
v 1.436895 0.961635 -1.891925
v 2.220595 0.961635 0.000175
v -0.455305 0.041534 -2.675725
v -0.455305 0.961635 -2.675725
v -2.347405 0.041534 -1.891925
v -2.347405 0.961635 -1.891925
v -3.131205 0.041534 0.000175
v -3.131205 0.961635 0.000175
v -2.347405 0.041534 1.892376
v -2.347405 0.961635 1.892376
v -0.455305 0.041534 2.676075
v -0.455305 0.961635 2.676075
v 1.436895 0.041534 1.892376
v 1.436895 0.961635 1.892376
v 1.583195 0.961635 0.000175
v 0.986195 0.961635 -1.441225
v 0.986195 3.884934 -1.441224
v 1.583195 3.884934 0.000176
v -0.455305 0.961635 -2.038325
v -0.455305 3.884934 -2.038324
v -1.896705 0.961635 -1.441225
v -1.896705 3.884934 -1.441224
v -2.493805 0.961635 0.000175
v -2.493805 3.884934 0.000176
v -1.896705 0.961635 1.441575
v -1.896705 3.884934 1.441575
v -0.455305 0.961635 2.038675
v -0.455305 3.884934 2.038675
v 0.986195 0.961635 1.441575
v 0.986195 3.884934 1.441575
v 0.725795 3.884934 0.000176
v 0.379895 3.884934 -0.835024
v 0.379895 25.952335 -0.835020
v 0.725795 25.952335 0.000179
v -0.455305 3.884934 -1.180924
v -0.455305 25.952335 -1.180921
v -1.290405 3.884934 -0.835024
v -1.290405 25.952335 -0.835020
v -1.636405 3.884934 0.000176
v -1.636405 25.952335 0.000179
v -1.290405 3.884934 0.835376
v -1.290405 25.952335 0.835380
v -0.455305 3.884934 1.181276
v -0.455305 25.952335 1.181279
v 0.379895 3.884934 0.835376
v 0.379895 25.952335 0.835380
v -0.455305 3.884934 0.000176
v -0.455305 0.961635 0.000175
v 0.514295 5.085034 -0.969324
v 0.514295 5.356535 -0.969324
v 0.915795 5.356535 0.000176
v 0.915795 5.085034 0.000176
v -0.455305 5.085034 -1.370924
v -0.455305 5.356535 -1.370924
v -1.424805 5.085034 -0.969324
v -1.424805 5.356535 -0.969324
v -1.826405 5.085034 0.000176
v -1.826405 5.356535 0.000176
v -1.424805 5.085034 0.969676
v -1.424805 5.356535 0.969676
v -0.455305 5.085034 1.371276
v -0.455305 5.356535 1.371276
v 0.514295 5.085034 0.969676
v 0.514295 5.356535 0.969676
v 0.725795 4.970835 0.000176
v 0.379895 4.970835 -0.835024
v -0.455305 4.970835 -1.180924
v -1.290405 4.970835 -0.835024
v -1.636405 4.970835 0.000176
v -1.290405 4.970835 0.835376
v -0.455305 4.970835 1.181276
v 0.379895 4.970835 0.835376
v 0.379895 5.470835 -0.835024
v 0.725795 5.470835 0.000176
v 0.379895 5.470835 0.835376
v -0.455305 5.470835 1.181276
v -1.290405 5.470835 0.835376
v -1.636405 5.470835 0.000176
v -1.290405 5.470835 -0.835024
v -0.455305 5.470835 -1.180924
v -0.455305 26.360735 0.000179
v 0.321095 26.529234 -0.776221
v 0.642695 26.529234 0.000179
v -0.455305 26.529234 -1.097821
v -1.231705 26.529234 -0.776221
v -1.553305 26.529234 0.000179
v -1.231705 26.529234 0.776579
v -0.455305 26.529234 1.098179
v 0.321095 26.529234 0.776579
v 0.432395 27.445835 -0.887520
v 0.800095 27.445835 0.000180
v -0.455305 27.445835 -1.255221
v -1.342905 27.445835 -0.887520
v -1.710605 27.445835 0.000180
v -1.342905 27.445835 0.887880
v -0.455305 27.445835 1.255579
v 0.432395 27.445835 0.887880
v -0.008205 29.104834 -0.446820
v 0.176895 29.104834 0.000180
v -0.455305 29.104834 -0.632020
v -0.902305 29.104834 -0.446820
v -1.087505 29.104834 0.000180
v -0.902305 29.104834 0.447180
v -0.455305 29.104834 0.632380
v -0.008205 29.104834 0.447180
v -0.455305 29.104834 0.000180
v 0.514295 26.066635 -0.969321
v 0.514295 26.338135 -0.969321
v 0.915795 26.338135 0.000179
v 0.915795 26.066635 0.000179
v -0.455305 26.066635 -1.370921
v -0.455305 26.338135 -1.370921
v -1.424805 26.066635 -0.969321
v -1.424805 26.338135 -0.969321
v -1.826405 26.066635 0.000179
v -1.826405 26.338135 0.000179
v -1.424805 26.066635 0.969679
v -1.424805 26.338135 0.969679
v -0.455305 26.066635 1.371280
v -0.455305 26.338135 1.371280
v 0.514295 26.066635 0.969679
v 0.514295 26.338135 0.969679
v 0.379895 26.452335 -0.835020
v 0.725795 26.452335 0.000179
v 0.379895 26.452335 0.835380
v -0.455305 26.452335 1.181279
v -1.290405 26.452335 0.835380
v -1.636405 26.452335 0.000179
v -1.290405 26.452335 -0.835020
v -0.455305 26.452335 -1.180920
v -0.480905 20.565134 -0.006021
v 30.529495 20.565134 -0.006021
v 30.529495 27.261034 -0.006020
v -0.480905 27.261034 -0.006020
vt 0.254500 0.074900
vt 0.215900 0.029000
vt 0.294900 0.029400
vt 0.159400 0.055500
vt 0.158600 0.093300
vt 0.214000 0.120400
vt 0.293000 0.120700
vt 0.349500 0.094200
vt 0.350300 0.056400
vt 0.254500 0.074900
vt 0.128700 0.099100
vt 0.129700 0.049400
vt 0.201300 0.134600
vt 0.305100 0.135100
vt 0.379200 0.100300
vt 0.380200 0.050600
vt 0.307600 0.015100
vt 0.203800 0.014700
vt 0.141700 0.929000
vt 0.197700 0.935200
vt 0.141700 0.935100
vt 0.197200 0.929100
vt 0.255100 0.934800
vt 0.312900 0.929100
vt 0.260100 0.928400
vt 0.368500 0.929000
vt 0.312400 0.935200
vt 0.424500 0.935200
vt 0.368500 0.935100
vt 0.424000 0.929100
vt 0.481900 0.934800
vt 0.086100 0.929100
vt 0.028300 0.934800
vt 0.033300 0.928400
vt 0.085600 0.935200
vt 0.141700 0.949100
vt 0.197700 0.942900
vt 0.197200 0.949000
vt 0.085600 0.942900
vt 0.141700 0.943000
vt 0.086100 0.949000
vt 0.028300 0.943300
vt 0.424000 0.949000
vt 0.481900 0.943300
vt 0.476900 0.949700
vt 0.368500 0.949100
vt 0.424500 0.942900
vt 0.312400 0.942900
vt 0.368500 0.943000
vt 0.312900 0.949000
vt 0.255100 0.943300
vt 0.250100 0.949700
vt 0.254500 0.074900
vt 0.285500 0.097300
vt 0.243400 0.101200
vt 0.309500 0.080200
vt 0.301200 0.060000
vt 0.265500 0.048500
vt 0.223400 0.052500
vt 0.199400 0.069600
vt 0.207700 0.089800
vt 0.480600 0.954800
vt 0.424400 0.963400
vt 0.424400 0.954800
vt 0.031100 0.954800
vt 0.087300 0.963500
vt 0.031100 0.963500
vt 0.087300 0.954800
vt 0.143500 0.963500
vt 0.143500 0.954800
vt 0.199700 0.963400
vt 0.255800 0.954800
vt 0.199700 0.954800
vt 0.312000 0.954800
vt 0.255800 0.963400
vt 0.368200 0.963400
vt 0.312000 0.963400
vt 0.368200 0.954800
vt 0.480600 0.979100
vt 0.424400 0.979100
vt 0.087300 0.979100
vt 0.031100 0.979100
vt 0.143500 0.979100
vt 0.255800 0.979100
vt 0.199700 0.979100
vt 0.312000 0.979100
vt 0.368200 0.979100
vt 0.224700 0.080600
vt 0.225000 0.068900
vt 0.254500 0.074900
vt 0.242500 0.060600
vt 0.267000 0.060800
vt 0.284200 0.069100
vt 0.283900 0.080900
vt 0.266400 0.089100
vt 0.241900 0.089000
vt 0.141700 0.929000
vt 0.197700 0.935200
vt 0.141700 0.935100
vt 0.197200 0.929100
vt 0.255100 0.934800
vt 0.312900 0.929100
vt 0.260100 0.928400
vt 0.368500 0.929000
vt 0.312400 0.935200
vt 0.424500 0.935200
vt 0.368500 0.935100
vt 0.424000 0.929100
vt 0.481900 0.934800
vt 0.086100 0.929100
vt 0.028300 0.934800
vt 0.033300 0.928400
vt 0.085600 0.935200
vt 0.141700 0.949100
vt 0.197700 0.942900
vt 0.197200 0.949000
vt 0.085600 0.942900
vt 0.141700 0.943000
vt 0.086100 0.949000
vt 0.028300 0.943300
vt 0.424000 0.949000
vt 0.481900 0.943300
vt 0.476900 0.949700
vt 0.368500 0.949100
vt 0.424500 0.942900
vt 0.312400 0.942900
vt 0.368500 0.943000
vt 0.312900 0.949000
vt 0.255100 0.943300
vt 0.250100 0.949700
vt 0.185700 0.038400
vt 0.257000 0.120800
vt 0.156200 0.072500
vt 0.328300 0.038400
vt 0.257000 0.024300
vt 0.357800 0.072500
vt 0.328300 0.106700
vt 0.185700 0.106700
vt 0.250100 0.928400
vt 0.476900 0.928400
vt 0.033300 0.949700
vt 0.260100 0.949700
vt 0.480600 0.963400
vt 0.250100 0.928400
vt 0.476900 0.928400
vt 0.033300 0.949700
vt 0.260100 0.949700
vt 0.086400 0.181200
vt 0.142000 0.154100
vt 0.142000 0.181200
vt 0.030900 0.181200
vt 0.086400 0.154100
vt 0.419700 0.181200
vt 0.475300 0.154100
vt 0.475300 0.181200
vt 0.364200 0.181200
vt 0.419700 0.154100
vt 0.308600 0.181200
vt 0.364200 0.154100
vt 0.253100 0.181200
vt 0.308600 0.154100
vt 0.197500 0.181200
vt 0.253100 0.154100
vt 0.197500 0.154100
vt 0.197400 0.181500
vt 0.141800 0.273600
vt 0.141800 0.181500
vt 0.252900 0.181500
vt 0.197400 0.273600
vt 0.308500 0.181500
vt 0.252900 0.273600
vt 0.364000 0.181500
vt 0.308500 0.273600
vt 0.419500 0.181500
vt 0.364000 0.273600
vt 0.475100 0.181500
vt 0.419500 0.273600
vt 0.086300 0.181500
vt 0.030700 0.273600
vt 0.030700 0.181500
vt 0.086300 0.273600
vt 0.308300 0.273700
vt 0.252800 0.922500
vt 0.252800 0.273700
vt 0.363800 0.273700
vt 0.308300 0.922500
vt 0.419300 0.273700
vt 0.363900 0.922500
vt 0.474900 0.273700
vt 0.419400 0.922500
vt 0.086300 0.273700
vt 0.030800 0.922500
vt 0.030800 0.273700
vt 0.141800 0.273700
vt 0.086300 0.922500
vt 0.197300 0.273700
vt 0.141800 0.922500
vt 0.197300 0.922500
vt 0.517000 0.126600
vt 0.962000 0.986500
vt 0.517000 0.986500
vt 0.030900 0.154100
vt 0.475100 0.273600
vt 0.474900 0.922500
vt 0.961900 0.126600
vn 0.0000 1.0000 -0.0000
vn 0.5038 -0.8382 -0.2086
vn 0.2087 -0.8382 -0.5039
vn -0.2087 -0.8382 -0.5038
vn -0.5037 -0.8383 -0.2087
vn -0.5038 -0.8382 0.2087
vn -0.2087 -0.8382 0.5039
vn 0.2087 -0.8382 0.5038
vn 0.5038 -0.8383 0.2086
vn 0.5041 0.8380 -0.2088
vn 0.5041 0.8380 0.2088
vn 0.2088 0.8380 0.5042
vn -0.2088 0.8380 0.5041
vn -0.5041 0.8380 0.2088
vn -0.5041 0.8380 -0.2088
vn -0.2088 0.8380 -0.5042
vn 0.2088 0.8380 -0.5041
vn 0.1514 -0.9865 -0.0627
vn 0.0627 -0.9865 -0.1514
vn -0.0627 -0.9865 -0.1514
vn -0.1514 -0.9865 -0.0627
vn -0.1514 -0.9865 0.0627
vn -0.0627 -0.9865 0.1514
vn 0.0627 -0.9865 0.1514
vn 0.1514 -0.9865 0.0627
vn 0.9125 -0.1567 -0.3780
vn 0.3780 -0.1567 -0.9125
vn -0.3780 -0.1567 -0.9125
vn -0.9125 -0.1566 -0.3780
vn -0.9125 -0.1566 0.3780
vn -0.3780 -0.1567 0.9125
vn 0.3780 -0.1567 0.9125
vn 0.9125 -0.1567 0.3780
vn 0.8728 0.3279 -0.3614
vn 0.3615 0.3279 -0.8728
vn -0.3616 0.3279 -0.8728
vn -0.8728 0.3278 -0.3615
vn -0.8728 0.3278 0.3616
vn -0.3616 0.3279 0.8728
vn 0.3615 0.3279 0.8728
vn 0.8728 0.3278 0.3615
vn 0.5041 -0.8380 -0.2088
vn 0.2088 -0.8380 -0.5042
vn -0.2088 -0.8380 -0.5041
vn -0.5041 -0.8380 -0.2088
vn -0.5041 -0.8380 0.2088
vn -0.2088 -0.8380 0.5042
vn 0.2088 -0.8380 0.5041
vn 0.5041 -0.8380 0.2088
vn 0.5038 0.8383 -0.2086
vn 0.5038 0.8382 0.2087
vn 0.2087 0.8382 0.5039
vn -0.2087 0.8382 0.5038
vn -0.5037 0.8383 0.2087
vn -0.5038 0.8382 -0.2087
vn -0.2087 0.8382 -0.5039
vn 0.2087 0.8382 -0.5038
vn 0.5038 -0.8383 -0.2086
vn 0.2087 -0.8382 -0.5038
vn -0.2087 -0.8382 -0.5039
vn -0.5038 -0.8382 -0.2087
vn -0.5037 -0.8383 0.2087
vn -0.2087 -0.8382 0.5038
vn 0.2087 -0.8382 0.5039
vn 0.5038 -0.8382 0.2086
vn 0.2088 0.8380 0.5041
vn -0.2088 0.8380 0.5042
vn -0.2088 0.8380 -0.5041
vn 0.2088 0.8380 -0.5042
vn 0.8728 0.3278 -0.3615
vn -0.8728 0.3278 -0.3616
vn -0.8728 0.3278 0.3615
vn 0.8728 0.3279 0.3614
vn 0.2088 -0.8380 -0.5041
vn -0.2088 -0.8380 -0.5042
vn -0.2088 -0.8380 0.5041
vn 0.2088 -0.8380 0.5042
vn 0.5038 0.8382 -0.2087
vn 0.5038 0.8383 0.2086
vn 0.2087 0.8382 0.5038
vn -0.2087 0.8382 0.5039
vn -0.5038 0.8382 0.2087
vn -0.5037 0.8383 -0.2087
vn -0.2087 0.8382 -0.5038
vn 0.2087 0.8382 -0.5039
vn 0.7071 0.0000 -0.7071
vn 0.7764 0.6302 0.0000
vn 1.0000 0.0000 0.0000
vn 0.0000 0.0000 -1.0000
vn 0.5490 0.6302 -0.5490
vn -0.7071 0.0000 -0.7071
vn 0.0000 0.6302 -0.7764
vn -1.0000 0.0000 0.0000
vn -0.5490 0.6302 -0.5490
vn -0.7071 0.0000 0.7071
vn -0.7764 0.6302 0.0000
vn 0.0000 0.0000 1.0000
vn -0.5490 0.6302 0.5490
vn 0.7071 0.0000 0.7071
vn 0.0000 0.6302 0.7764
vn 0.5490 0.6302 0.5490
vn 0.8339 -0.5520 0.0000
vn 0.5896 -0.5520 -0.5896
vn 0.0000 -0.5520 -0.8339
vn -0.5896 -0.5520 -0.5896
vn -0.8338 -0.5520 0.0000
vn -0.5896 -0.5520 0.5896
vn 0.0000 -0.5520 0.8339
vn 0.5896 -0.5520 0.5896
vn 0.6326 0.4469 -0.6325
vn 0.8945 -0.4470 0.0000
vn 0.6325 -0.4470 -0.6325
vn 0.0000 0.4469 -0.8946
vn 0.0000 -0.4470 -0.8945
vn -0.6326 0.4469 -0.6326
vn -0.6325 -0.4470 -0.6325
vn -0.8946 0.4469 0.0000
vn -0.8945 -0.4470 0.0000
vn -0.6326 0.4469 0.6326
vn -0.6325 -0.4470 0.6325
vn 0.0000 0.4469 0.8946
vn 0.0000 -0.4470 0.8945
vn 0.6326 0.4469 0.6325
vn 0.6325 -0.4470 0.6325
vn 0.8946 0.4469 0.0000
vn 0.6325 0.4470 -0.6325
vn 0.8946 -0.4469 0.0000
vn 0.6326 -0.4469 -0.6325
vn 0.0000 0.4470 -0.8945
vn 0.0000 -0.4469 -0.8946
vn -0.6325 0.4470 -0.6325
vn -0.6326 -0.4469 -0.6326
vn -0.8945 0.4470 0.0000
vn -0.8946 -0.4469 0.0000
vn -0.6325 0.4470 0.6325
vn -0.6326 -0.4469 0.6326
vn 0.0000 0.4470 0.8945
vn 0.0000 -0.4469 0.8946
vn 0.6325 0.4470 0.6325
vn 0.6326 -0.4469 0.6325
vn 0.8945 0.4470 0.0000
usemtl Material__117s
s off
f 49/1/1 20/2/1 19/3/1
f 49/1/1 32/4/1 20/2/1
f 49/1/1 30/5/1 32/4/1
f 49/1/1 28/6/1 30/5/1
f 49/1/1 26/7/1 28/6/1
f 49/1/1 24/8/1 26/7/1
f 49/1/1 22/9/1 24/8/1
f 49/1/1 19/3/1 22/9/1
f 50/10/1 4/11/1 3/12/1
f 50/10/1 16/13/1 4/11/1
f 50/10/1 14/14/1 16/13/1
f 50/10/1 12/15/1 14/14/1
f 50/10/1 10/16/1 12/15/1
f 50/10/1 8/17/1 10/16/1
f 50/10/1 6/18/1 8/17/1
f 50/10/1 3/12/1 6/18/1
f 67/19/2 51/20/2 54/21/2
f 68/22/3 55/23/3 51/20/3
f 70/24/4 55/23/4 69/25/4
f 71/26/5 57/27/5 70/24/5
f 71/26/6 61/28/6 59/29/6
f 72/30/7 63/31/7 61/28/7
f 74/32/8 63/33/8 73/34/8
f 67/19/9 65/35/9 74/32/9
f 76/36/10 52/37/10 75/38/10
f 76/36/11 66/39/11 53/40/11
f 77/41/12 64/42/12 66/39/12
f 79/43/13 64/44/13 78/45/13
f 80/46/14 62/47/14 79/43/14
f 80/46/15 58/48/15 60/49/15
f 81/50/16 56/51/16 58/48/16
f 75/38/17 56/51/17 82/52/17
f 83/53/18 84/54/18 85/55/18
f 83/53/19 86/56/19 84/54/19
f 83/53/20 87/57/20 86/56/20
f 83/53/21 88/58/21 87/57/21
f 83/53/22 89/59/22 88/58/22
f 83/53/23 90/60/23 89/59/23
f 83/53/24 91/61/24 90/60/24
f 83/53/25 85/55/25 91/61/25
f 84/62/26 93/63/26 85/64/26
f 84/65/27 94/66/27 92/67/27
f 86/68/28 95/69/28 94/66/28
f 87/70/29 96/71/29 95/69/29
f 89/72/30 96/71/30 88/73/30
f 90/74/31 97/75/31 89/72/31
f 90/74/32 99/76/32 98/77/32
f 91/78/33 93/63/33 99/76/33
f 93/63/34 100/79/34 101/80/34
f 92/67/35 102/81/35 100/82/35
f 95/69/36 102/81/36 94/66/36
f 96/71/37 103/83/37 95/69/37
f 96/71/38 105/84/38 104/85/38
f 97/75/39 106/86/39 105/84/39
f 99/76/40 106/86/40 98/77/40
f 93/63/41 107/87/41 99/76/41
f 101/88/1 100/89/1 108/90/1
f 100/89/1 102/91/1 108/90/1
f 102/91/1 103/92/1 108/90/1
f 103/92/1 104/93/1 108/90/1
f 104/93/1 105/94/1 108/90/1
f 105/94/1 106/95/1 108/90/1
f 106/95/1 107/96/1 108/90/1
f 107/96/1 101/88/1 108/90/1
f 36/97/42 109/98/42 112/99/42
f 35/100/43 113/101/43 109/98/43
f 40/102/44 113/101/44 38/103/44
f 42/104/45 115/105/45 40/102/45
f 42/104/46 119/106/46 117/107/46
f 44/108/47 121/109/47 119/106/47
f 48/110/48 121/111/48 46/112/48
f 36/97/49 123/113/49 48/110/49
f 126/114/50 110/115/50 125/116/50
f 126/114/51 124/117/51 111/118/51
f 127/119/52 122/120/52 124/117/52
f 129/121/53 122/122/53 128/123/53
f 130/124/54 120/125/54 129/121/54
f 130/124/55 116/126/55 118/127/55
f 131/128/56 114/129/56 116/126/56
f 125/116/57 114/129/57 132/130/57
f 131/131/1 126/132/1 132/133/1
f 129/134/1 126/132/1 130/135/1
f 128/136/1 127/137/1 126/132/1
f 125/138/1 132/133/1 126/132/1
f 67/19/58 68/22/58 51/20/58
f 68/22/59 69/139/59 55/23/59
f 70/24/60 57/27/60 55/23/60
f 71/26/61 59/29/61 57/27/61
f 71/26/62 72/30/62 61/28/62
f 72/30/63 73/140/63 63/31/63
f 74/32/64 65/35/64 63/33/64
f 67/19/65 54/21/65 65/35/65
f 76/36/10 53/40/10 52/37/10
f 76/36/11 77/41/11 66/39/11
f 77/41/66 78/141/66 64/42/66
f 79/43/67 62/47/67 64/44/67
f 80/46/14 60/49/14 62/47/14
f 80/46/15 81/50/15 58/48/15
f 81/50/68 82/142/68 56/51/68
f 75/38/69 52/37/69 56/51/69
f 84/62/26 92/143/26 93/63/26
f 84/65/27 86/68/27 94/66/27
f 86/68/28 87/70/28 95/69/28
f 87/70/29 88/73/29 96/71/29
f 89/72/30 97/75/30 96/71/30
f 90/74/31 98/77/31 97/75/31
f 90/74/32 91/78/32 99/76/32
f 91/78/33 85/64/33 93/63/33
f 93/63/70 92/143/70 100/79/70
f 92/67/35 94/66/35 102/81/35
f 95/69/36 103/83/36 102/81/36
f 96/71/71 104/85/71 103/83/71
f 96/71/72 97/75/72 105/84/72
f 97/75/39 98/77/39 106/86/39
f 99/76/40 107/87/40 106/86/40
f 93/63/73 101/80/73 107/87/73
f 36/97/42 35/100/42 109/98/42
f 35/100/74 38/144/74 113/101/74
f 40/102/75 115/105/75 113/101/75
f 42/104/45 117/107/45 115/105/45
f 42/104/46 44/108/46 119/106/46
f 44/108/76 46/145/76 121/109/76
f 48/110/77 123/113/77 121/111/77
f 36/97/49 112/99/49 123/113/49
f 126/114/78 111/118/78 110/115/78
f 126/114/79 127/119/79 124/117/79
f 127/119/80 128/146/80 122/120/80
f 129/121/81 120/125/81 122/122/81
f 130/124/82 118/127/82 120/125/82
f 130/124/83 131/128/83 116/126/83
f 131/128/84 132/147/84 114/129/84
f 125/116/85 110/115/85 114/129/85
f 131/131/1 130/135/1 126/132/1
f 129/134/1 128/136/1 126/132/1
s 1
f 2/148/86 4/149/87 1/150/88
f 5/151/89 3/152/90 2/148/86
f 7/153/91 6/154/92 5/155/89
f 9/156/93 8/157/94 7/153/91
f 11/158/95 10/159/96 9/156/93
f 13/160/97 12/161/98 11/158/95
f 15/162/99 14/163/100 13/160/97
f 1/150/88 16/164/101 15/162/99
f 18/165/86 20/166/87 17/167/88
f 21/168/89 19/169/90 18/165/86
f 23/170/91 22/171/92 21/168/89
f 25/172/93 24/173/94 23/170/91
f 27/174/95 26/175/96 25/172/93
f 29/176/97 28/177/98 27/174/95
f 31/178/99 30/179/100 29/180/97
f 17/167/88 32/181/101 31/178/99
f 34/182/86 36/183/102 33/184/88
f 37/185/89 35/186/103 34/182/86
f 39/187/91 38/188/104 37/185/89
f 41/189/93 40/190/105 39/187/91
f 43/191/95 42/192/106 41/193/93
f 45/194/97 44/195/107 43/191/95
f 47/196/99 46/197/108 45/194/97
f 33/184/88 48/198/109 47/196/99
f 52/37/110 54/21/111 51/20/112
f 56/51/113 51/20/112 55/23/114
f 58/48/115 55/23/114 57/27/116
f 60/49/117 57/27/116 59/29/118
f 62/47/119 59/29/118 61/28/120
f 64/44/121 61/28/120 63/31/122
f 66/39/123 63/33/122 65/35/124
f 53/40/125 65/35/124 54/21/111
f 110/115/126 112/99/127 109/98/128
f 114/129/129 109/98/128 113/101/130
f 116/126/131 113/101/130 115/105/132
f 118/127/133 115/105/132 117/107/134
f 120/125/135 117/107/134 119/106/136
f 122/122/137 119/106/136 121/109/138
f 124/117/139 121/111/138 123/113/140
f 111/118/141 123/113/140 112/99/127
f 134/199/97 136/200/97 133/201/97
f 2/148/86 3/152/90 4/149/87
f 5/151/89 6/202/92 3/152/90
f 7/153/91 8/157/94 6/154/92
f 9/156/93 10/159/96 8/157/94
f 11/158/95 12/161/98 10/159/96
f 13/160/97 14/163/100 12/161/98
f 15/162/99 16/164/101 14/163/100
f 1/150/88 4/149/87 16/164/101
f 18/165/86 19/169/90 20/166/87
f 21/168/89 22/171/92 19/169/90
f 23/170/91 24/173/94 22/171/92
f 25/172/93 26/175/96 24/173/94
f 27/174/95 28/177/98 26/175/96
f 29/176/97 30/203/100 28/177/98
f 31/178/99 32/181/101 30/179/100
f 17/167/88 20/166/87 32/181/101
f 34/182/86 35/186/103 36/183/102
f 37/185/89 38/188/104 35/186/103
f 39/187/91 40/190/105 38/188/104
f 41/189/93 42/204/106 40/190/105
f 43/191/95 44/195/107 42/192/106
f 45/194/97 46/197/108 44/195/107
f 47/196/99 48/198/109 46/197/108
f 33/184/88 36/183/102 48/198/109
f 52/37/110 53/40/125 54/21/111
f 56/51/113 52/37/110 51/20/112
f 58/48/115 56/51/113 55/23/114
f 60/49/117 58/48/115 57/27/116
f 62/47/119 60/49/117 59/29/118
f 64/44/121 62/47/119 61/28/120
f 66/39/123 64/42/121 63/33/122
f 53/40/125 66/39/123 65/35/124
f 110/115/126 111/118/141 112/99/127
f 114/129/129 110/115/126 109/98/128
f 116/126/131 114/129/129 113/101/130
f 118/127/133 116/126/131 115/105/132
f 120/125/135 118/127/133 117/107/134
f 122/122/137 120/125/135 119/106/136
f 124/117/139 122/120/137 121/111/138
f 111/118/141 124/117/139 123/113/140
f 134/199/97 135/205/97 136/200/97
